<?xml version="1.0" encoding="utf-8"?>
<!-- Generator: Adobe Illustrator 25.4.1, SVG Export Plug-In . SVG Version: 6.00 Build 0)  -->
<!DOCTYPE svg PUBLIC "-//W3C//DTD SVG 1.1//EN" "http://www.w3.org/Graphics/SVG/1.1/DTD/svg11.dtd" [
	<!ENTITY ns_extend "http://ns.adobe.com/Extensibility/1.0/">
	<!ENTITY ns_ai "http://ns.adobe.com/AdobeIllustrator/10.0/">
	<!ENTITY ns_graphs "http://ns.adobe.com/Graphs/1.0/">
	<!ENTITY ns_vars "http://ns.adobe.com/Variables/1.0/">
	<!ENTITY ns_imrep "http://ns.adobe.com/ImageReplacement/1.0/">
	<!ENTITY ns_sfw "http://ns.adobe.com/SaveForWeb/1.0/">
	<!ENTITY ns_custom "http://ns.adobe.com/GenericCustomNamespace/1.0/">
	<!ENTITY ns_adobe_xpath "http://ns.adobe.com/XPath/1.0/">
]>
<svg version="1.1" xmlns:x="&ns_extend;" xmlns:i="&ns_ai;" xmlns:graph="&ns_graphs;"
	 xmlns="http://www.w3.org/2000/svg" xmlns:xlink="http://www.w3.org/1999/xlink" x="0px" y="0px" viewBox="0 0 686 381.3"
	 style="enable-background:new 0 0 686 381.3;" xml:space="preserve">
<style type="text/css">
	.Skyggeeffekt{fill:none;}
	.Udvendig_x0020_glød_x0020_5_x0020_pkt{fill:none;}
	.Blå_x0020_neon{fill:none;stroke:#8AACDA;stroke-width:7;stroke-linecap:round;stroke-linejoin:round;}
	.Kromt_x0020_højlys{fill:url(#SVGID_1_);stroke:#FFFFFF;stroke-width:0.3629;stroke-miterlimit:1;}
	.Jive_GS{fill:#FFDD00;}
	.Alyssa_GS{fill:#A6D0E4;}
	.st0{fill:#F0F0F0;stroke:#C8C8C8;stroke-width:2;stroke-miterlimit:10;}
	.st1{fill:#F0F0F0;stroke:#999999;stroke-width:2;stroke-miterlimit:10;}
	.st2{fill:#C8C8C8;stroke:#000000;stroke-width:2;stroke-miterlimit:10;}
	.st3{fill:#86B1E0;stroke:#000000;stroke-width:2;stroke-miterlimit:10;}
	.st4{fill:#FFFFFF;stroke:#000000;stroke-width:2;stroke-miterlimit:10;}
	.st5{fill:none;stroke:#000000;stroke-width:2;stroke-miterlimit:10;}
	.st6{fill:none;stroke:#000000;stroke-width:1.0476;stroke-miterlimit:10;}
	.st7{fill:none;stroke:#000000;stroke-miterlimit:10;}
	.st8{fill:#FFFFFF;stroke:#000000;stroke-miterlimit:10;}
	.st9{stroke:#000000;stroke-width:1.0476;stroke-miterlimit:10;}
	.st10{fill:none;stroke:#86B1EA;stroke-width:2;stroke-miterlimit:10;}
	.st11{fill:none;stroke:#86B1E0;stroke-width:2;stroke-miterlimit:10;}
	.st12{fill:#FFFFFF;}
	.st13{fill:none;stroke:#000000;stroke-width:2;stroke-linejoin:round;stroke-miterlimit:10;}
	.st14{fill:#C8C8C8;}
	.st15{fill:#FFFFFF;stroke:#000000;stroke-width:2;stroke-linecap:round;stroke-linejoin:round;stroke-miterlimit:10;}
	.st16{fill:#86B1E0;stroke:#000000;stroke-miterlimit:10;}
	.st17{fill:none;}
	.st18{opacity:0.68;fill:#FFFFFF;stroke:#FFFFFF;stroke-width:2;stroke-miterlimit:10;}
	.st19{display:none;}
	.st20{display:inline;}
	.st21{font-family:'ArialMT';}
	.st22{font-size:12px;}
	.st23{font-family:'Calibri';}
	.st24{font-size:14px;}
	.st25{fill:#E6E6E6;}
	.st26{font-size:13.5px;}
</style>
<metadata>
	<sfw  xmlns="&ns_sfw;">
		<slices></slices>
		<sliceSourceBounds  bottomLeftOrigin="true" height="383.8" width="679.5" x="0.9" y="-442.8"></sliceSourceBounds>
	</sfw>
</metadata>
<linearGradient id="SVGID_1_" gradientUnits="userSpaceOnUse" x1="2.9053" y1="-58.9676" x2="2.9053" y2="-59.9676">
	<stop  offset="0" style="stop-color:#656565"/>
	<stop  offset="0.618" style="stop-color:#1B1B1B"/>
	<stop  offset="0.6292" style="stop-color:#545454"/>
	<stop  offset="0.9831" style="stop-color:#3E3E3E"/>
</linearGradient>
<g id="Figurer">
	<polygon class="st0" points="401.9,155.7 401.9,226.7 463.4,262.2 524.9,226.7 524.9,155.7 463.4,120.2 	"/>
	<polygon class="st0" points="331.9,273.7 331.9,344.7 393.4,380.2 454.9,344.7 454.9,273.7 393.4,238.2 	"/>
	<polygon class="st1" points="331.9,36.7 331.9,107.7 393.4,143.2 454.9,107.7 454.9,36.7 393.4,1.2 	"/>
	<polygon class="st0" points="194.9,273.7 194.9,344.7 256.4,380.2 317.9,344.7 317.9,273.7 256.4,238.2 	"/>
	<polygon class="st0" points="129.4,158.1 129.4,229.1 190.9,264.6 252.4,229.1 252.4,158.1 190.9,122.6 	"/>
	<polygon class="st1" points="194.9,36.7 194.9,107.7 256.4,143.2 317.9,107.7 317.9,36.7 256.4,1.2 	"/>
	<polygon class="st1" points="264.9,155 264.9,226 326.4,261.5 387.9,226 387.9,155 326.4,119.5 	"/>
	<g>
		<rect x="316.7" y="154.1" class="st2" width="29.3" height="56"/>
		<rect x="305.9" y="165" class="st3" width="23.6" height="45"/>
		<line class="st4" x1="297" y1="210" x2="355.5" y2="210"/>
		<line class="st4" x1="329.4" y1="167.3" x2="346" y2="167.4"/>
		<line class="st4" x1="329.5" y1="176.1" x2="346.3" y2="176.1"/>
		<line class="st4" x1="329.5" y1="184.8" x2="346" y2="185"/>
		<line class="st4" x1="329.4" y1="193.7" x2="345.6" y2="193.6"/>
		<rect x="313" y="199.1" class="st4" width="9.4" height="10.9"/>
		<rect x="313" y="171.9" class="st4" width="3.8" height="3.8"/>
		<rect x="313" y="180.8" class="st4" width="3.8" height="3.8"/>
		<rect x="313" y="189.7" class="st4" width="3.8" height="3.8"/>
	</g>
	<g>
		<path class="st4" d="M289.8,88.7h-63.4c-2.4,0-4.3-1.9-4.3-4.3V45.9c0-2.4,1.9-4.3,4.3-4.3h63.4c2.4,0,4.3,1.9,4.3,4.3v38.4
			C294.1,86.8,292.2,88.7,289.8,88.7z"/>
		<path class="st2" d="M263.8,47.2h-11.2v-7.7c0-2.9,2.3-5.2,5.2-5.2h0.7c2.9,0,5.2,2.3,5.2,5.2V47.2z"/>
		<rect x="235.6" y="53.7" class="st2" width="14" height="26.8"/>
		<rect x="230.4" y="58.9" class="st3" width="11.3" height="21.6"/>
		<line class="st5" x1="226.2" y1="80.5" x2="254.2" y2="80.5"/>
		<line class="st6" x1="241.7" y1="60" x2="249.6" y2="60"/>
		<line class="st7" x1="241.9" y1="64.2" x2="250" y2="64.2"/>
		<line class="st6" x1="241.9" y1="68.4" x2="249.8" y2="68.5"/>
		<line class="st7" x1="241.7" y1="72.7" x2="249.4" y2="72.6"/>
		<rect x="233.8" y="75.2" class="st8" width="4.5" height="5.2"/>
		<rect x="233.8" y="61.9" class="st9" width="1.8" height="1.8"/>
		<rect x="233.8" y="66.3" class="st9" width="1.8" height="1.8"/>
		<rect x="233.8" y="70.7" class="st9" width="1.8" height="1.8"/>
		<line class="st5" x1="263.9" y1="54.5" x2="288.3" y2="54.5"/>
		<line class="st5" x1="263.9" y1="63.2" x2="288.3" y2="63.2"/>
		<line class="st5" x1="263.9" y1="71.8" x2="288.3" y2="71.8"/>
		<line class="st5" x1="263.9" y1="80.5" x2="288.3" y2="80.5"/>
	</g>
	<g>
		<rect x="375.4" y="27.5" class="st3" width="21" height="11.4"/>
		<rect x="390.8" y="53.2" class="st3" width="21" height="11.4"/>
		<rect x="359.9" y="53.3" class="st4" width="21" height="11.4"/>
		<rect x="375.6" y="79.2" class="st4" width="21" height="11.4"/>
		<rect x="405.9" y="79" class="st4" width="21" height="11.4"/>
		<polyline class="st7" points="370.4,53.2 370.4,46 385.9,46 385.9,38.9 		"/>
		<polyline class="st7" points="401.3,53.2 401.3,46 385.9,46 385.9,38.9 		"/>
		<polyline class="st7" points="385.9,78.8 385.9,71.7 401.3,71.7 401.3,64.5 		"/>
		<polyline class="st7" points="416.8,78.8 416.8,71.7 401.3,71.7 401.3,64.5 		"/>
	</g>
	<g>
		<circle class="st3" cx="462.8" cy="149.9" r="4.9"/>
		<circle class="st5" cx="479" cy="153.5" r="4"/>
		<path class="st3" d="M472.9,181h-19.6c-2,0-3.5-1.6-3.5-3.5v-14.4c0-2,1.6-3.5,3.5-3.5h19.6c2,0,3.5,1.6,3.5,3.5v14.4
			C476.4,179.4,474.8,181,472.9,181z"/>
		<path class="st3" d="M470.1,166.2v31c0,1-0.8,1.8-1.8,1.8h-10.7c-1,0-1.8-0.8-1.8-1.8v-31"/>
		<line class="st5" x1="463.2" y1="181" x2="463" y2="198.5"/>
		<path class="st5" d="M441.6,178.3h-2.1c-1.4,0-2.5-1.1-2.5-2.5v-11.2c0-1.4,1.1-2.5,2.5-2.5h7.6"/>
		<path class="st5" d="M479,162.1h7.5c1.4,0,2.5,1.1,2.5,2.5v11.2c0,1.4-1.1,2.5-2.5,2.5h-2.4"/>
		<path class="st5" d="M447.1,166.5"/>
		<path class="st5" d="M447.8,182.6v11c0,0.4-0.3,0.8-0.8,0.8h-4.2c-0.4,0-0.8-0.3-0.8-0.8v-27"/>
		<path class="st5" d="M483.9,166.5v27c0,0.4-0.3,0.8-0.8,0.8H479c-0.4,0-0.8-0.3-0.8-0.8v-11"/>
		<path class="st5" d="M479,166.5"/>
		<circle class="st5" cx="447.2" cy="153.5" r="4"/>
	</g>
	<path class="st5" d="M167.9,167.2"/>
	<path class="st10" d="M194.7,185.1c-0.1-4.6-4.1-8.2-9-8.1"/>
	<path class="st11" d="M202.5,185.1c-0.2-8.7-8-15.7-17.5-15.5"/>
	<path class="st10" d="M210.6,184.5c-0.2-12.8-11.7-22.9-25.6-22.6"/>
	<path class="st2" d="M186.7,196.4c1.2-2.6,4-4,7.4-3l7,1.9c3.3,0.9,5.1,4.9,3.5,8.3l-1,1.8c-0.5,1-1.7,1.8-3,2.2
		c-1.4,0.4-2.7,0.3-2.7,0.3l-0.4,0l0.2,0c-3.2-0.2-12.4-1.3-22.4-9.8c-10.5-8.9-12.6-19.9-13.3-22.9l0.1,0.6c-0.7-2.7,0-5.8,2.3-7.5
		l1.5-1.1c3-2.3,7.4-1.2,9,2.2l3.1,6.5c1.6,3.4-0.8,7.5-4.4,8.5l0,0c0.2,1.3,0.8,5.1,5.1,8.8c4.1,3.5,6.4,3.8,7.8,3.9L186.7,196.4z"
		/>
	<path class="st12" d="M418.7,269.1c-0.8-1.2-2.2-2.1-3.6-2.1l-0.1,0.1c-0.2,0-0.4-0.1-0.5,0c-0.1,0-0.2,0-0.3,0.1
		c-0.7,0.2-1.3,0.6-1.8,1.1c0.6-0.8,1.2-1.2,2.1-1.2c0.2,0,0.4-0.1,0.6-0.1H384l-0.3,0.1c-1.8,0.5-2.8,2.4-3.5,4.2
		c-0.8,2.1-1.4,4.2-1.9,6.4c-1-0.3-2-0.4-3-0.4c-6.5,0-11.8,5.3-11.8,11.8c0,6.5,5.3,11.8,11.8,11.8c0.6,0,1.3-0.1,1.9-0.2v0.1
		c0.1,1.9,0.1,3.7,0.3,5.6c0.1,0.4,0.1,0.9,0.1,1.3h-10.9c-0.6,2.7,0.1,5.7,2.2,7.4c0.9,0.7,2,1.1,3.1,1.2l0.4,0H403
		c1.4,0,2.8-0.5,3.8-1.6c2-2.2,1.5-5.5,1.2-8.5c-0.2-1.9-0.3-3.7-0.3-5.6c-0.3-7.8-0.5-15.8,1.2-23.3l9,0l0,0c1.3-0.4,1.8-2,1.9-3.3
		C419.9,272.4,419.7,270.6,418.7,269.1z M409.1,277.2c0,0,0-0.1,0.2-0.1C409.2,277.3,409.1,277.3,409.1,277.2z"/>
	<path class="st13" d="M415.3,267h-31.1l-0.2,0.1c-1.8,0.5-2.8,2.4-3.5,4.2c-3.6,9.3-3.4,19.6-3,29.6c0.1,1.9,0.1,3.7,0.3,5.6
		c0,0.4,0.1,0.9,0.1,1.3"/>
	<path class="st14" d="M419.7,272.6c0,2.6-0.7,4.9-2.7,4.9c-4,0.1-7.9-0.5-7.7-0.3c0.3,0.5,1.3-3.6,1.5-4.3c1.3-4.8,2.5-6.8,5.7-5.5
		C418.2,268.2,419.7,270,419.7,272.6z"/>
	<path class="st5" d="M376.5,314.8"/>
	<path class="st5" d="M403.3,316.4h-30.6l-0.4,0c-1.1-0.1-2.3-0.5-3.1-1.2c-2.1-1.7-2.8-4.8-2.2-7.4h0.1h30.3
		c-0.7,2.6,0,5.7,2.1,7.4c2.1,1.7,5.6,1.7,7.4-0.3c2-2.2,1.5-5.5,1.2-8.5c-0.2-1.9-0.3-3.7-0.3-5.6c-0.3-8.4-0.5-17.1,1.7-25.2
		c0.4-1.5,0.9-2.9,1.4-4.3c0.7-1.8,1.7-3.7,3.5-4.2c1.7-0.5,3.5,0.5,4.5,2c1,1.5,1.2,3.3,1,5.1c-0.1,1.3-0.6,2.9-1.9,3.3l0,0l-9.1,0
		"/>
	<line class="st5" x1="383.1" y1="280.9" x2="402.2" y2="280.9"/>
	<line class="st5" x1="382.5" y1="286.1" x2="401.6" y2="286.1"/>
	<line class="st5" x1="382.1" y1="291.3" x2="401.2" y2="291.3"/>
	<path class="st12" d="M286.3,320.7h-56.5c1.9-4.2,3.7-8.4,5.6-12.6c1.3-3,2.6-6,4-8.9h13.4l5.3,9.5l5.3-9.5h14.8L286.3,320.7z"/>
	<line class="st5" x1="382.1" y1="296.5" x2="401.2" y2="296.5"/>
	<line class="st5" x1="382.1" y1="301.8" x2="401.2" y2="301.8"/>
	<line class="st5" x1="384.5" y1="275.6" x2="403.6" y2="275.6"/>
	<g>
		<circle class="st4" cx="375.5" cy="289" r="11.8"/>
		<line class="st15" x1="368.7" y1="289" x2="375.5" y2="289"/>
		<line class="st15" x1="375.5" y1="282.5" x2="375.5" y2="289"/>
	</g>
	<line class="st7" x1="250.2" y1="299.2" x2="245.1" y2="320.7"/>
	<path class="st3" d="M257.8,255.6c-9.4,0-17,7.6-17,17c0,3.1,0.8,6,2.3,8.5l0.2,0.3l9.3,16.8l5.3,9.5l5.3-9.5l9.3-16.8l0.2-0.3
		c1.4-2.5,2.3-5.4,2.3-8.5C274.8,263.2,267.2,255.6,257.8,255.6z M257.8,281c-4.7,0-8.4-3.8-8.4-8.5s3.8-8.5,8.4-8.5
		c4.7,0,8.5,3.8,8.5,8.5S262.5,281,257.8,281z"/>
	<path class="st7" d="M268.9,299.2c0.4,2.7,1.4,3.8,2.2,4.4c1.3,0.8,2.5,0.4,5,0.9c1.9,0.3,3.4,0.9,4.3,1.3"/>
	<path class="st16" d="M233.4,312.3l1.2-3.1l0.1,0c1.5-0.1,3.8-0.2,6.5,0.3c3.7,0.7,5.6,2,7.6,2.8c6,2.6,12.9,1.2,23-0.8
		c2.4-0.5,5.9-1.3,10.1-2.7l-0.3,0.1l1.1,2.8l0.1,0.1c-4.3,1.7-8.2,2.8-10.7,3.4c-10.5,2.5-17.6,4.2-23.9,1c-2-1.1-4-2.7-7.9-3.5
		c-2.8-0.6-5.2-0.6-6.7-0.5L233.4,312.3z"/>
	<path class="st5" d="M286,320.7h-56.5c1.9-4.2,3.7-8.4,5.6-12.6c1.3-3,2.6-6,4-8.9h13.4l5.3,9.5l5.3-9.5h14.8L286,320.7z"/>
	<rect x="475.2" y="42.3" class="st17" width="8.6" height="0"/>
	<rect x="108.9" y="158.9" class="st17" width="3.4" height="0"/>
	<polygon class="st18" points="400.4,154 400.4,227.8 464.2,264.7 527.9,227.8 527.9,154 464.2,117.2 	"/>
	<polygon class="st18" points="194.1,270.8 194.1,344.6 257.8,381.5 321.5,344.6 321.5,270.8 257.8,233.9 	"/>
	<polygon class="st18" points="330.3,272 330.3,345.8 394,382.7 457.8,345.8 457.8,272 394,235.1 	"/>
</g>
<g id="Punkttekst" class="st19">
	<text transform="matrix(1 0 0 1 532.4053 166.451)" class="st20"><tspan x="0" y="0" class="st21 st22">• Medlemskab og rolle</tspan><tspan x="0" y="14.4" class="st21 st22">• Organisationsmedlemskab</tspan><tspan x="0" y="28.8" class="st21 st22">• Organisatorisk samarbejde</tspan><tspan x="0" y="43.2" class="st21 st22">• Persontilknytning </tspan><tspan x="0" y="57.6" class="st21 st22">• Ansat og leder</tspan></text>
	<text transform="matrix(1 0 0 1 462.2227 291.7073)" class="st20"><tspan x="0" y="0" class="st21 st22">• Organisationens oprettelse   </tspan><tspan x="0" y="14.4" class="st21 st22">• Ændringer af organisationen   </tspan><tspan x="0" y="28.8" class="st21 st22">• Regelgrundlag og retskilde  </tspan><tspan x="0" y="43.2" class="st21 st22">• Forvaltningsopgaver</tspan></text>
	<text transform="matrix(1 0 0 1 92.5777 291.3129)" class="st20"><tspan x="0" y="0" class="st21 st22">Fysisk placering •</tspan><tspan x="42" y="14.4" class="st21 st22">Adresse •</tspan><tspan x="-38" y="28.8" class="st21 st22">Juridisk registreret sted •</tspan><tspan x="-88.7" y="43.2" class="st21 st22">Administrativt geografisk område •</tspan></text>
	<text transform="matrix(1 0 0 1 36.2869 175.0592)" class="st20"><tspan x="0" y="0" class="st21 st22">E-mailadresse •</tspan><tspan x="-7.3" y="14.4" class="st21 st22">Telefonnummer •</tspan><tspan x="12.7" y="28.8" class="st21 st22"> Digital Post •</tspan><tspan x="10" y="43.2" class="st21 st22">Åbningstider •</tspan></text>
	<text transform="matrix(1 0 0 1 151.1807 53.6679)" class="st20"><tspan x="0" y="0" class="st21 st22">Navn •</tspan><tspan x="-33.3" y="14.4" class="st21 st22">Beskrivelse •</tspan><tspan x="-34" y="28.8" class="st21 st22">Identifikator •</tspan><tspan x="-68.1" y="43.2" class="st21 st22">Logo og miniature •</tspan><tspan x="-38.7" y="57.6" class="st21 st22">Hjemmeside •</tspan></text>
	<text transform="matrix(1 0 0 1 461.5869 51.2694)" class="st20"><tspan x="0" y="0" class="st21 st22">• Underorganisation   </tspan><tspan x="0" y="14.4" class="st21 st22">• Organisatorisk enhed   </tspan><tspan x="0" y="28.8" class="st21 st22">• Relateret organisation   </tspan><tspan x="0" y="43.2" class="st21 st22">• Organisationstype   </tspan></text>
</g>
<g id="Figurtekst">
	<text transform="matrix(1 0 0 1 285.8259 229.4056)" class="st23 st24">Organisation</text>
	<text transform="matrix(1 0 0 1 432.175 212.6391)"><tspan x="0" y="0" class="st25 st23 st26">Aktører og  </tspan><tspan x="-8.6" y="16.2" class="st25 st23 st26"> medlemsskab</tspan></text>
	<text transform="matrix(1 0 0 1 206.3635 105.6391)" class="st23 st24">Basisinformation</text>
	<text transform="matrix(1 0 0 1 351.7355 105.6391)"><tspan x="0" y="0" class="st23 st24">Organisatorisk </tspan><tspan x="18.3" y="16.8" class="st23 st24">struktur</tspan></text>
	<text transform="matrix(1 0 0 1 237.8331 343.6393)" class="st25 st23 st24">Sted</text>
	<text transform="matrix(1 0 0 1 361.7177 333.6389)"><tspan x="0" y="0" class="st25 st23 st24">Historik og  </tspan><tspan x="-3.9" y="16.8" class="st25 st23 st24">retsgrundlag</tspan></text>
	<text transform="matrix(1 0 0 1 162.6612 228.8397)" class="st23 st24">Kontakt</text>
</g>
</svg>
